#define cpu_width 12
#define cpu_height 12
static unsigned char cpu_bits[] = {
   0xf7, 0x0e, 0x01, 0x08, 0x01, 0x08, 0xf8, 0x01, 0xf9, 0x09, 0xf9, 0x09,
   0xf9, 0x09, 0xf9, 0x09, 0xf8, 0x01, 0x01, 0x08, 0x01, 0x08, 0xf7, 0x0e };
