#define fullscreen_16_width 26
#define fullscreen_16_height 16
static unsigned char fullscreen_16_bits[] = {
   0x00, 0x00, 0x00, 0x00, 0x00, 0x20, 0x00, 0x00, 0x00, 0x70, 0x00, 0x00,
   0x00, 0xf8, 0x00, 0x00, 0x00, 0x70, 0x00, 0x00, 0x80, 0xff, 0x07, 0x00,
   0x88, 0x00, 0x44, 0x00, 0xfc, 0x00, 0xfc, 0x00, 0xfe, 0x00, 0xfc, 0x01,
   0xfc, 0x00, 0xfc, 0x00, 0x88, 0x00, 0x44, 0x00, 0x80, 0xff, 0x07, 0x00,
   0x00, 0x70, 0x00, 0x00, 0x00, 0xf8, 0x00, 0x00, 0x00, 0x70, 0x00, 0x00,
   0x00, 0x20, 0x00, 0x00 };
