#define fullscreen2_width 16
#define fullscreen2_height 16
static unsigned char fullscreen2_bits[] = {
   0xff, 0xff, 0x01, 0x80, 0xe1, 0x8f, 0xe1, 0x8f, 0x61, 0x80, 0x61, 0x80,
   0x61, 0x80, 0xe1, 0x87, 0xe1, 0x87, 0x61, 0x80, 0x61, 0x80, 0x61, 0x80,
   0x61, 0x80, 0x61, 0x80, 0x01, 0x80, 0xff, 0xff };
