#define fullscreen_width 16
#define fullscreen_height 16
static unsigned char fullscreen_bits[] = {
   0x00, 0x00, 0xfe, 0x7f, 0x1e, 0x78, 0xde, 0x7f, 0xde, 0x7f, 0xde, 0x7f,
   0xde, 0x7f, 0x1e, 0x78, 0xde, 0x7f, 0xde, 0x7f, 0xde, 0x7f, 0xde, 0x7f,
   0xde, 0x7f, 0xde, 0x7f, 0xfe, 0x7f, 0x00, 0x00 };
