#define tile_width 16
#define tile_height 16
static unsigned char tile_bits[] = {
   0x00, 0x00, 0x7e, 0x7f, 0x7e, 0x7f, 0x7e, 0x7f, 0x7e, 0x7f, 0x7e, 0x00,
   0x7e, 0x7f, 0x7e, 0x7f, 0x7e, 0x7f, 0x7e, 0x7f, 0x7e, 0x00, 0x7e, 0x7f,
   0x7e, 0x7f, 0x7e, 0x7f, 0x7e, 0x7f, 0x00, 0x00 };
