#define tile_sky_width 26
#define tile_sky_height 16
static unsigned char tile_sky_bits[] = {
   0x00, 0x00, 0x00, 0x00, 0x00, 0x00, 0x00, 0x00, 0xfc, 0xff, 0xff, 0x00,
   0x04, 0x30, 0x80, 0x00, 0x04, 0x30, 0x80, 0x00, 0x04, 0xf0, 0xff, 0x00,
   0x04, 0xf0, 0xff, 0x00, 0x04, 0x30, 0x80, 0x00, 0x04, 0x30, 0x80, 0x00,
   0x04, 0xf0, 0xff, 0x00, 0x04, 0xf0, 0xff, 0x00, 0x04, 0x30, 0x80, 0x00,
   0x04, 0x30, 0x80, 0x00, 0xfc, 0xff, 0xff, 0x00, 0x00, 0x00, 0x00, 0x00,
   0x00, 0x00, 0x00, 0x00 };
