#define tilebottom_sky_width 26
#define tilebottom_sky_height 16
static unsigned char tilebottom_sky_bits[] = {
   0x00, 0x00, 0x00, 0x00, 0x00, 0x00, 0x00, 0x00, 0xfe, 0xff, 0xff, 0x01,
   0x02, 0x00, 0x00, 0x01, 0x02, 0x00, 0x00, 0x01, 0x02, 0x00, 0x00, 0x01,
   0x02, 0x00, 0x00, 0x01, 0x02, 0x00, 0x00, 0x01, 0xfe, 0xff, 0xff, 0x01,
   0x02, 0x03, 0x03, 0x01, 0x02, 0x03, 0x03, 0x01, 0x02, 0x03, 0x03, 0x01,
   0x02, 0x03, 0x03, 0x01, 0xfe, 0xff, 0xff, 0x01, 0x00, 0x00, 0x00, 0x00,
   0x00, 0x00, 0x00, 0x00 };
