#define tile1_width 16
#define tile1_height 16
static unsigned char tile1_bits[] = {
   0xff, 0xff, 0x81, 0x88, 0x81, 0x88, 0x81, 0x88, 0x81, 0x88, 0x81, 0xff,
   0x81, 0x88, 0xff, 0x88, 0x81, 0x88, 0x81, 0x88, 0x81, 0xff, 0x81, 0x88,
   0x81, 0x88, 0x81, 0x88, 0x81, 0x88, 0xff, 0xff };
